#N canvas 233 0 906 643 12;
#X text 194 38 This will interct with 8-encoder thing (see README);
#X obj 119 50 loadbang;
#X obj 119 84 tgl 25 0 empty empty empty 17 7 0 10 #fafff4 #000000 #e1e1e1 0 1;
#X obj 114 437 tgl 25 0 empty empty switch 28 13 0 10 #ff00e7 #000000 #0400ff 0 1;
#X obj 162 437 tgl 25 0 empty empty empty 16 7 0 10 #48ffe4 #000000 #e1e1e1 0 1;
#X obj 199 437 tgl 25 0 empty empty empty 16 7 0 10 #48ffe4 #000000 #e1e1e1 0 1;
#X obj 231 437 tgl 25 0 empty empty empty 16 7 0 10 #48ffe4 #000000 #e1e1e1 0 1;
#X obj 263 437 tgl 25 0 empty empty empty 16 7 0 10 #48ffe4 #000000 #e1e1e1 0 1;
#X obj 200 469 vsl 20 128 0 254 0 0 empty empty empty 0 -9 0 10 #18ff2e #000000 #e1e1e1 0 1;
#X obj 165 469 vsl 20 128 0 254 0 0 empty empty empty 0 -9 0 10 #18ff2e #000000 #e1e1e1 0 1;
#X obj 266 469 vsl 20 128 0 254 0 0 empty empty empty 0 -9 0 10 #18ff2e #000000 #e1e1e1 0 1;
#X obj 233 469 vsl 20 128 0 254 0 0 empty empty empty 0 -9 0 10 #18ff2e #000000 #e1e1e1 0 1;
#X obj 671 128 bng 20 250 50 0 empty empty rainbow 0 -10 0 12 #fcfcfc #000000 #000000;
#N canvas 700 318 450 300 looper 0;
#X obj 84 29 inlet num;
#X obj 76 113 until;
#X obj 75 149 f;
#X obj 114 144 + 1;
#X obj 169 140 sel 0;
#X obj 87 71 t f f;
#X obj 114 170 mod;
#X obj 74 224 outlet nums;
#X connect 0 0 5 0;
#X connect 1 0 2 0;
#X connect 2 0 3 0;
#X connect 2 0 7 0;
#X connect 3 0 6 0;
#X connect 4 0 1 1;
#X connect 5 0 1 0;
#X connect 5 1 6 1;
#X connect 6 0 2 1;
#X connect 6 0 4 0;
#X restore 670 183 pd looper;
#X obj 741 184 * 0.125;
#X obj 675 214 pack 0 0;
#X msg 673 241 hsv \$1 \$2 1 1;
#X obj 674 352 bng 20 250 50 0 empty empty clear 0 -10 0 12 #fcfcfc #000000 #000000;
#N canvas 700 318 450 300 looper 0;
#X obj 84 29 inlet num;
#X obj 76 113 until;
#X obj 75 149 f;
#X obj 114 144 + 1;
#X obj 169 140 sel 0;
#X obj 87 71 t f f;
#X obj 114 170 mod;
#X obj 74 224 outlet nums;
#X connect 0 0 5 0;
#X connect 1 0 2 0;
#X connect 2 0 3 0;
#X connect 2 0 7 0;
#X connect 3 0 6 0;
#X connect 4 0 1 1;
#X connect 5 0 1 0;
#X connect 5 1 6 1;
#X connect 6 0 2 1;
#X connect 6 0 4 0;
#X restore 673 407 pd looper;
#X msg 673 433 rgb \$1 0 0 0;
#X obj 119 124 metro 50;
#X obj 172 265 route switch button rotary;
#X obj 119 186 list trim;
#X text 154 601 rotaries are -2.14784e+08 - 2.14784e+08 \, so I mod here;
#X text 272 619 to wrap around;
#X obj 293 356 mod 255;
#X obj 369 356 mod 255;
#X obj 450 355 mod 255;
#X obj 533 356 mod 255;
#X obj 474 133 bng 20 250 50 0 empty empty reset_rotaries 0 -10 0 12 #fcfcfc #000000 #000000;
#N canvas 700 318 450 300 looper 0;
#X obj 84 29 inlet num;
#X obj 76 113 until;
#X obj 75 149 f;
#X obj 114 144 + 1;
#X obj 169 140 sel 0;
#X obj 87 71 t f f;
#X obj 114 170 mod;
#X obj 74 224 outlet nums;
#X connect 0 0 5 0;
#X connect 1 0 2 0;
#X connect 2 0 3 0;
#X connect 2 0 7 0;
#X connect 3 0 6 0;
#X connect 4 0 1 1;
#X connect 5 0 1 0;
#X connect 5 1 6 1;
#X connect 6 0 2 1;
#X connect 6 0 4 0;
#X restore 473 188 pd looper;
#X msg 473 214 rotary \$1 0;
#X obj 119 161 pi4encoder;
#X msg 476 160 4;
#X msg 673 155 4;
#X obj 201 125 r pi4;
#X obj 472 240 s pi4;
#X obj 673 268 s pi4;
#X obj 672 459 s pi4;
#X obj 194 325 route 0 1 2 3;
#X obj 349 319 route 0 1 2 3;
#X msg 676 379 4;
#X connect 1 0 2 0;
#X connect 2 0 20 0;
#X connect 12 0 34 0;
#X connect 13 0 14 0;
#X connect 13 0 15 0;
#X connect 14 0 15 1;
#X connect 15 0 16 0;
#X connect 16 0 37 0;
#X connect 17 0 41 0;
#X connect 18 0 19 0;
#X connect 19 0 38 0;
#X connect 20 0 32 0;
#X connect 21 0 3 0;
#X connect 21 1 39 0;
#X connect 21 2 40 0;
#X connect 22 0 21 0;
#X connect 25 0 9 0;
#X connect 26 0 8 0;
#X connect 27 0 11 0;
#X connect 28 0 10 0;
#X connect 29 0 33 0;
#X connect 30 0 31 0;
#X connect 31 0 36 0;
#X connect 32 0 22 0;
#X connect 33 0 30 0;
#X connect 34 0 13 0;
#X connect 35 0 32 0;
#X connect 39 0 4 0;
#X connect 39 1 5 0;
#X connect 39 2 6 0;
#X connect 39 3 7 0;
#X connect 40 0 25 0;
#X connect 40 1 26 0;
#X connect 40 2 27 0;
#X connect 40 3 28 0;
#X connect 41 0 18 0;
